<svg xmlns="http://www.w3.org/2000/svg" version="1.1" xmlns:xlink="http://www.w3.org/1999/xlink" viewBox="0 0 2400 600"
  opacity="0.66">
  <g fill="#1eb854" transform="matrix(1,0,0,1,0,-64.38986206054688)">
    <path
      d="M 0 11 Q 342 280 342 33 Q 685 280 685 22 Q 1028 280 1028 39 Q 1371 280 1371 36 Q 1714 280 1714 8 Q 2057 280 2057 31 Q 2400 280 2400 39 L 2400 500 L 0 500 L 0 11 Z"
      transform="matrix(1,0,0,1,0,55)" opacity="0.05" />
    <path
      d="M 0 11 Q 342 280 342 33 Q 685 280 685 22 Q 1028 280 1028 39 Q 1371 280 1371 36 Q 1714 280 1714 8 Q 2057 280 2057 31 Q 2400 280 2400 39 L 2400 500 L 0 500 L 0 11 Z"
      transform="matrix(1,0,0,1,0,110)" opacity="0.53" />
    <path
      d="M 0 11 Q 342 280 342 33 Q 685 280 685 22 Q 1028 280 1028 39 Q 1371 280 1371 36 Q 1714 280 1714 8 Q 2057 280 2057 31 Q 2400 280 2400 39 L 2400 500 L 0 500 L 0 11 Z"
      transform="matrix(1,0,0,1,0,165)" opacity="1.00" />
  </g>
</svg>